<svg width="24" height="32" viewBox="0 0 24 32" fill="none" xmlns="http://www.w3.org/2000/svg">
<g clip-path="url(#clip0_1_254)">
<path fill-rule="evenodd" clip-rule="evenodd" d="M20.25 7.75H12.75V6.25C12.75 5.83579 12.4142 5.5 12 5.5C11.5858 5.5 11.25 5.83579 11.25 6.25V7.75H3.75C2.92157 7.75 2.25 8.42157 2.25 9.25V20.5C2.25 21.3284 2.92157 22 3.75 22H7.44L5.41406 24.5312C5.15518 24.8549 5.20765 25.3271 5.53125 25.5859C5.85485 25.8448 6.32705 25.7924 6.58594 25.4688L9.36 22H14.64L17.4141 25.4688C17.6729 25.7924 18.1451 25.8448 18.4688 25.5859C18.7924 25.3271 18.8448 24.8549 18.5859 24.5312L16.56 22H20.25C21.0784 22 21.75 21.3284 21.75 20.5V9.25C21.75 8.42157 21.0784 7.75 20.25 7.75ZM20.25 20.5H3.75V9.25H20.25V20.5ZM9.75 15.25V17.5C9.75 17.9142 9.41421 18.25 9 18.25C8.58579 18.25 8.25 17.9142 8.25 17.5V15.25C8.25 14.8358 8.58579 14.5 9 14.5C9.41421 14.5 9.75 14.8358 9.75 15.25ZM12.75 13.75V17.5C12.75 17.9142 12.4142 18.25 12 18.25C11.5858 18.25 11.25 17.9142 11.25 17.5V13.75C11.25 13.3358 11.5858 13 12 13C12.4142 13 12.75 13.3358 12.75 13.75ZM15.75 12.25V17.5C15.75 17.9142 15.4142 18.25 15 18.25C14.5858 18.25 14.25 17.9142 14.25 17.5V12.25C14.25 11.8358 14.5858 11.5 15 11.5C15.4142 11.5 15.75 11.8358 15.75 12.25Z" fill="#9CB5BA"/>
</g>
<defs>
<clipPath id="clip0_1_254">
<rect width="24" height="24" fill="white" transform="translate(0 4)"/>
</clipPath>
</defs>
</svg>
