<svg width="24" height="24" viewBox="0 0 24 24" fill="none" xmlns="http://www.w3.org/2000/svg">
<g clip-path="url(#clip0_1_95)">
<path fill-rule="evenodd" clip-rule="evenodd" d="M20.7938 16.4944C20.2734 15.5981 19.5 13.0622 19.5 9.75C19.5 5.60786 16.1421 2.25 12 2.25C7.85786 2.25 4.5 5.60786 4.5 9.75C4.5 13.0631 3.72563 15.5981 3.20531 16.4944C2.93487 16.9581 2.9329 17.5311 3.20016 17.9967C3.46741 18.4623 3.96313 18.7496 4.5 18.75H8.32594C8.68267 20.4956 10.2184 21.7492 12 21.7492C13.7816 21.7492 15.3173 20.4956 15.6741 18.75H19.5C20.0367 18.7493 20.5321 18.4619 20.7991 17.9963C21.0662 17.5308 21.0641 16.958 20.7938 16.4944ZM12 20.25C11.0467 20.2497 10.1971 19.6487 9.87938 18.75H14.1206C13.8029 19.6487 12.9533 20.2497 12 20.25ZM4.5 17.25C5.22188 16.0088 6 13.1325 6 9.75C6 6.43629 8.68629 3.75 12 3.75C15.3137 3.75 18 6.43629 18 9.75C18 13.1297 18.7763 16.0059 19.5 17.25H4.5Z" fill="white"/>
</g>
<defs>
<clipPath id="clip0_1_95">
<rect width="24" height="24" fill="white"/>
</clipPath>
</defs>
</svg>
