<svg width="24" height="24" viewBox="0 0 24 24" fill="none" xmlns="http://www.w3.org/2000/svg">
<g clip-path="url(#clip0_11_63)">
<path fill-rule="evenodd" clip-rule="evenodd" d="M16.5 21.75C16.5 22.1642 16.1642 22.5 15.75 22.5H8.25C7.83579 22.5 7.5 22.1642 7.5 21.75C7.5 21.3358 7.83579 21 8.25 21H15.75C16.1642 21 16.5 21.3358 16.5 21.75V21.75ZM20.25 9.75C20.2566 12.2836 19.0926 14.6783 17.0963 16.2384C16.723 16.5246 16.5029 16.9672 16.5 17.4375V18C16.5 18.8284 15.8284 19.5 15 19.5H9C8.17157 19.5 7.5 18.8284 7.5 18V17.4375C7.49969 16.9728 7.28398 16.5344 6.91594 16.2506C4.9248 14.6999 3.75734 12.3197 3.75 9.79594C3.72563 5.32781 7.33688 1.60688 11.8013 1.5C14.0235 1.44645 16.1734 2.29194 17.7638 3.84496C19.3542 5.39798 20.2506 7.52709 20.25 9.75V9.75ZM18.75 9.75C18.7505 7.93116 18.017 6.18908 16.7157 4.91842C15.4143 3.64775 13.6552 2.95604 11.8369 3C8.18062 3.08625 5.23031 6.13031 5.25 9.78656C5.25694 11.8506 6.21244 13.7969 7.84125 15.0647C8.57354 15.634 9.00133 16.51 9 17.4375V18H15V17.4375C15.0021 16.5074 15.4335 15.6303 16.1691 15.0609C17.8031 13.784 18.7556 11.8238 18.75 9.75V9.75ZM17.2397 8.87438C16.8414 6.64954 15.0996 4.90815 12.8747 4.51031C12.4662 4.44145 12.0792 4.71679 12.0103 5.12531C11.9414 5.53383 12.2168 5.92082 12.6253 5.98969C14.1788 6.25125 15.4969 7.56937 15.7603 9.12562C15.8216 9.4863 16.1342 9.75014 16.5 9.75C16.5424 9.74975 16.5847 9.7463 16.6266 9.73969C17.0348 9.67 17.3093 9.28262 17.2397 8.87438V8.87438Z" fill="white"/>
</g>
<defs>
<clipPath id="clip0_11_63">
<rect width="24" height="24" fill="white"/>
</clipPath>
</defs>
</svg>
