<svg width="24" height="32" viewBox="0 0 24 32" fill="none" xmlns="http://www.w3.org/2000/svg">
<g clip-path="url(#clip0_1_268)">
<path fill-rule="evenodd" clip-rule="evenodd" d="M14.25 15.25H12.75V9.25H13.5C15.1569 9.25 16.5 10.5931 16.5 12.25C16.5 12.6642 16.8358 13 17.25 13C17.6642 13 18 12.6642 18 12.25C17.9974 9.76579 15.9842 7.75258 13.5 7.75H12.75V6.25C12.75 5.83579 12.4142 5.5 12 5.5C11.5858 5.5 11.25 5.83579 11.25 6.25V7.75H10.5C8.01472 7.75 6 9.76472 6 12.25C6 14.7353 8.01472 16.75 10.5 16.75H11.25V22.75H9.75C8.09315 22.75 6.75 21.4069 6.75 19.75C6.75 19.3358 6.41421 19 6 19C5.58579 19 5.25 19.3358 5.25 19.75C5.25258 22.2342 7.26579 24.2474 9.75 24.25H11.25V25.75C11.25 26.1642 11.5858 26.5 12 26.5C12.4142 26.5 12.75 26.1642 12.75 25.75V24.25H14.25C16.7353 24.25 18.75 22.2353 18.75 19.75C18.75 17.2647 16.7353 15.25 14.25 15.25ZM10.5 15.25C8.84315 15.25 7.5 13.9069 7.5 12.25C7.5 10.5931 8.84315 9.25 10.5 9.25H11.25V15.25H10.5ZM14.25 22.75H12.75V16.75H14.25C15.9069 16.75 17.25 18.0931 17.25 19.75C17.25 21.4069 15.9069 22.75 14.25 22.75Z" fill="#9CB5BA"/>
</g>
<defs>
<clipPath id="clip0_1_268">
<rect width="24" height="24" fill="white" transform="translate(0 4)"/>
</clipPath>
</defs>
</svg>
