<svg width="24" height="24" viewBox="0 0 24 24" fill="none" xmlns="http://www.w3.org/2000/svg">
<g clip-path="url(#clip0_1_199)">
<path fill-rule="evenodd" clip-rule="evenodd" d="M6.75 8.25V3.75C6.75 3.33579 7.08579 3 7.5 3C7.91421 3 8.25 3.33579 8.25 3.75V8.25C8.25 8.66421 7.91421 9 7.5 9C7.08579 9 6.75 8.66421 6.75 8.25ZM20.25 3.75V21C20.25 21.4142 19.9142 21.75 19.5 21.75C19.0858 21.75 18.75 21.4142 18.75 21V16.5H14.25C13.8358 16.5 13.5 16.1642 13.5 15.75C13.5348 13.9534 13.7617 12.1658 14.1769 10.4175C15.0938 6.62156 16.8319 4.07719 19.2047 3.06094C19.4363 2.9617 19.7024 2.98546 19.9128 3.12416C20.1232 3.26287 20.2499 3.49798 20.25 3.75ZM18.75 5.05312C15.7341 7.35656 15.1434 12.9675 15.0281 15H18.75V5.05312ZM11.2397 3.62719C11.1997 3.35915 11.0182 3.13353 10.765 3.03701C10.5118 2.94049 10.2262 2.98809 10.0179 3.16152C9.80968 3.33495 9.7112 3.60723 9.76031 3.87375L10.5 8.30906C10.5 9.96592 9.15685 11.3091 7.5 11.3091C5.84315 11.3091 4.5 9.96592 4.5 8.30906L5.23875 3.87375C5.28786 3.60723 5.18938 3.33495 4.98114 3.16152C4.77289 2.98809 4.48729 2.94049 4.23406 3.03701C3.98082 3.13353 3.79936 3.35915 3.75938 3.62719L3.00938 8.12719C3.00296 8.16781 2.99982 8.20888 3 8.25C3.00309 10.4446 4.58658 12.3178 6.75 12.6862V21C6.75 21.4142 7.08579 21.75 7.5 21.75C7.91421 21.75 8.25 21.4142 8.25 21V12.6862C10.4134 12.3178 11.9969 10.4446 12 8.25C11.9999 8.20885 11.9964 8.16778 11.9897 8.12719L11.2397 3.62719Z" fill="white"/>
</g>
<defs>
<clipPath id="clip0_1_199">
<rect width="24" height="24" fill="white"/>
</clipPath>
</defs>
</svg>
