<svg width="24" height="24" viewBox="0 0 24 24" fill="none" xmlns="http://www.w3.org/2000/svg">
<g clip-path="url(#clip0_1_227)">
<path fill-rule="evenodd" clip-rule="evenodd" d="M20.25 6H13.8103L17.0306 2.78063C17.2202 2.59105 17.2942 2.31474 17.2248 2.05578C17.1555 1.79681 16.9532 1.59454 16.6942 1.52515C16.4353 1.45576 16.1589 1.5298 15.9694 1.71938L12 5.68969L8.03063 1.71938C7.84105 1.5298 7.56474 1.45576 7.30578 1.52515C7.04681 1.59454 6.84454 1.79681 6.77515 2.05578C6.70576 2.31474 6.7798 2.59105 6.96938 2.78063L10.1897 6H3.75C2.92157 6 2.25 6.67157 2.25 7.5V18.75C2.25 19.5784 2.92157 20.25 3.75 20.25H20.25C21.0784 20.25 21.75 19.5784 21.75 18.75V7.5C21.75 6.67157 21.0784 6 20.25 6ZM3.75 7.5H13.5V18.75H3.75V7.5ZM20.25 18.75H15V7.5H20.25V18.75ZM18.75 10.875C18.75 11.4963 18.2463 12 17.625 12C17.0037 12 16.5 11.4963 16.5 10.875C16.5 10.2537 17.0037 9.75 17.625 9.75C18.2463 9.75 18.75 10.2537 18.75 10.875ZM18.75 15.375C18.75 15.9963 18.2463 16.5 17.625 16.5C17.0037 16.5 16.5 15.9963 16.5 15.375C16.5 14.7537 17.0037 14.25 17.625 14.25C18.2463 14.25 18.75 14.7537 18.75 15.375Z" fill="white"/>
</g>
<defs>
<clipPath id="clip0_1_227">
<rect width="24" height="24" fill="white"/>
</clipPath>
</defs>
</svg>
