<svg width="28" height="28" viewBox="0 0 28 28" fill="none" xmlns="http://www.w3.org/2000/svg">
<g clip-path="url(#clip0_1_353)">
<path fill-rule="evenodd" clip-rule="evenodd" d="M23 6.5H5C4.17157 6.5 3.5 7.17157 3.5 8V20C3.5 20.8284 4.17157 21.5 5 21.5H23C23.8284 21.5 24.5 20.8284 24.5 20V8C24.5 7.17157 23.8284 6.5 23 6.5ZM23 8V10.25H5V8H23ZM23 20H5V11.75H23V20ZM21.5 17.75C21.5 18.1642 21.1642 18.5 20.75 18.5H17.75C17.3358 18.5 17 18.1642 17 17.75C17 17.3358 17.3358 17 17.75 17H20.75C21.1642 17 21.5 17.3358 21.5 17.75ZM15.5 17.75C15.5 18.1642 15.1642 18.5 14.75 18.5H13.25C12.8358 18.5 12.5 18.1642 12.5 17.75C12.5 17.3358 12.8358 17 13.25 17H14.75C15.1642 17 15.5 17.3358 15.5 17.75Z" fill="white"/>
</g>
<defs>
<clipPath id="clip0_1_353">
<rect width="24" height="24" fill="white" transform="translate(2 2)"/>
</clipPath>
</defs>
</svg>
