<svg width="24" height="24" viewBox="0 0 24 24" fill="none" xmlns="http://www.w3.org/2000/svg">
<g clip-path="url(#clip0_2_809)">
<path fill-rule="evenodd" clip-rule="evenodd" d="M20.25 9.75H9.57094L19.6875 7.07906C19.8809 7.0281 20.046 6.90199 20.146 6.72876C20.2459 6.55553 20.2726 6.34954 20.22 6.15656L19.455 3.34406C19.2359 2.55665 18.4245 2.09165 17.6344 2.30063L3.35719 6.06938C2.97317 6.16906 2.64542 6.41909 2.44781 6.76312C2.24907 7.10299 2.19664 7.50892 2.3025 7.88812L3 10.4587C3 10.4719 3 10.4859 3 10.5V18.75C3 19.5784 3.67157 20.25 4.5 20.25H19.5C20.3284 20.25 21 19.5784 21 18.75V10.5C21 10.0858 20.6642 9.75 20.25 9.75ZM18.015 3.75L18.5775 5.81906L16.4569 6.38156L13.8206 4.85906L18.015 3.75ZM11.7628 5.4L14.3991 6.9225L10.9359 7.83656L8.29969 6.31594L11.7628 5.4ZM4.31906 9.58313L3.75656 7.51312L6.24094 6.85687L8.87719 8.38125L4.31906 9.58313ZM19.5 18.75H4.5V11.25H19.5V18.75Z" fill="white"/>
</g>
<defs>
<clipPath id="clip0_2_809">
<rect width="24" height="24" fill="white"/>
</clipPath>
</defs>
</svg>
