<svg width="24" height="24" viewBox="0 0 24 24" fill="none" xmlns="http://www.w3.org/2000/svg">
<g clip-path="url(#clip0_2_758)">
<path fill-rule="evenodd" clip-rule="evenodd" d="M4.50656 9.75H19.4934C19.9482 9.75231 20.3795 9.54816 20.666 9.19496C20.9525 8.84176 21.0633 8.37765 20.9672 7.93313C20.2706 4.64062 16.5 2.25 12 2.25C7.5 2.25 3.72938 4.64062 3.03281 7.93313C2.93673 8.37765 3.04752 8.84176 3.33401 9.19496C3.62051 9.54816 4.05178 9.75231 4.50656 9.75ZM12 3.75C15.7331 3.75 18.9572 5.68219 19.4934 8.25H4.50656L4.5 8.24344C5.04281 5.68219 8.26688 3.75 12 3.75ZM21.4931 14.295L17.6372 15.7013L14.1562 14.3034C13.9775 14.232 13.7781 14.232 13.5994 14.3034L10.1306 15.6919L6.65625 14.3034C6.4852 14.2351 6.29499 14.2321 6.12187 14.295L1.99688 15.795C1.63507 15.9543 1.45898 16.367 1.59442 16.7384C1.72985 17.1098 2.13029 17.3123 2.50969 17.2013L3.75 16.7522V17.25C3.75 19.3211 5.42893 21 7.5 21H16.5C18.5711 21 20.25 19.3211 20.25 17.25V16.3434L22.0059 15.705C22.2743 15.6265 22.4766 15.4052 22.531 15.1309C22.5853 14.8567 22.4826 14.575 22.2645 14.4001C22.0463 14.2252 21.749 14.1861 21.4931 14.2987V14.295ZM18.75 17.25C18.75 18.4926 17.7426 19.5 16.5 19.5H7.5C6.25736 19.5 5.25 18.4926 5.25 17.25V16.2075L6.36281 15.8025L9.84375 17.1966C10.0225 17.268 10.2219 17.268 10.4006 17.1966L13.8694 15.8081L17.3381 17.1966C17.5092 17.2649 17.6994 17.2679 17.8725 17.205L18.7416 16.8891L18.75 17.25ZM1.5 12C1.5 11.5858 1.83579 11.25 2.25 11.25H21.75C22.1642 11.25 22.5 11.5858 22.5 12C22.5 12.4142 22.1642 12.75 21.75 12.75H2.25C1.83579 12.75 1.5 12.4142 1.5 12Z" fill="white"/>
</g>
<defs>
<clipPath id="clip0_2_758">
<rect width="24" height="24" fill="white"/>
</clipPath>
</defs>
</svg>
