<svg width="20" height="20" viewBox="0 0 20 20" fill="none" xmlns="http://www.w3.org/2000/svg">
<g clip-path="url(#clip0_2_489)">
<path fill-rule="evenodd" clip-rule="evenodd" d="M16.875 3.125H3.125C2.43464 3.125 1.875 3.68464 1.875 4.375V15.625C1.875 16.3154 2.43464 16.875 3.125 16.875H16.875C17.5654 16.875 18.125 16.3154 18.125 15.625V4.375C18.125 3.68464 17.5654 3.125 16.875 3.125ZM16.875 4.375V12.4023L14.8383 10.3664C14.6039 10.1319 14.2859 10.0002 13.9543 10.0002C13.6227 10.0002 13.3047 10.1319 13.0703 10.3664L11.5078 11.9289L8.07031 8.49141C7.58222 8.00364 6.79121 8.00364 6.30312 8.49141L3.125 11.6695V4.375H16.875ZM3.125 13.4375L7.1875 9.375L13.4375 15.625H3.125V13.4375ZM16.875 15.625H15.2055L12.393 12.8125L13.9555 11.25L16.875 14.1703V15.625ZM11.25 7.8125C11.25 7.29473 11.6697 6.875 12.1875 6.875C12.7053 6.875 13.125 7.29473 13.125 7.8125C13.125 8.33027 12.7053 8.75 12.1875 8.75C11.6697 8.75 11.25 8.33027 11.25 7.8125Z" fill="white"/>
</g>
<defs>
<clipPath id="clip0_2_489">
<rect width="20" height="20" fill="white"/>
</clipPath>
</defs>
</svg>
