<svg width="24" height="24" viewBox="0 0 24 24" fill="none" xmlns="http://www.w3.org/2000/svg">
<g clip-path="url(#clip0_11_91)">
<path fill-rule="evenodd" clip-rule="evenodd" d="M20.25 8.25H15.75V3.75C15.75 2.92157 15.0784 2.25 14.25 2.25H9.75C8.92157 2.25 8.25 2.92157 8.25 3.75V8.25H3.75C2.92157 8.25 2.25 8.92157 2.25 9.75V14.25C2.25 15.0784 2.92157 15.75 3.75 15.75H8.25V20.25C8.25 21.0784 8.92157 21.75 9.75 21.75H14.25C15.0784 21.75 15.75 21.0784 15.75 20.25V15.75H20.25C21.0784 15.75 21.75 15.0784 21.75 14.25V9.75C21.75 8.92157 21.0784 8.25 20.25 8.25V8.25ZM20.25 14.25H15C14.5858 14.25 14.25 14.5858 14.25 15V20.25H9.75V15C9.75 14.5858 9.41421 14.25 9 14.25H3.75V9.75H9C9.41421 9.75 9.75 9.41421 9.75 9V3.75H14.25V9C14.25 9.41421 14.5858 9.75 15 9.75H20.25V14.25Z" fill="white"/>
</g>
<defs>
<clipPath id="clip0_11_91">
<rect width="24" height="24" fill="white"/>
</clipPath>
</defs>
</svg>
