<svg width="20" height="20" viewBox="0 0 20 20" fill="none" xmlns="http://www.w3.org/2000/svg">
<g clip-path="url(#clip0_1_298)">
<path fill-rule="evenodd" clip-rule="evenodd" d="M19.375 11.25C19.375 11.5952 19.0952 11.875 18.75 11.875C18.4048 11.875 18.125 11.5952 18.125 11.25C18.1203 7.10983 14.7652 3.75474 10.625 3.75C6.82983 3.75431 3.75431 6.82983 3.75 10.625C3.75388 14.0752 6.54983 16.8711 10 16.875C13.1052 16.8716 15.6216 14.3552 15.625 11.25C15.622 8.48983 13.3852 6.25301 10.625 6.25C8.20983 6.25258 6.25258 8.20983 6.25 10.625C6.25215 12.6952 7.92982 14.3728 10 14.375C11.7259 14.375 13.125 12.9759 13.125 11.25C13.125 9.86929 12.0057 8.75 10.625 8.75C9.58947 8.75 8.75 9.58947 8.75 10.625C8.75 11.3154 9.30964 11.875 10 11.875C10.3452 11.875 10.625 11.5952 10.625 11.25C10.2798 11.25 10 10.9702 10 10.625C10 10.2798 10.2798 10 10.625 10C11.3154 10 11.875 10.5596 11.875 11.25C11.875 12.2855 11.0355 13.125 10 13.125C8.61929 13.125 7.5 12.0057 7.5 10.625C7.5 8.89911 8.89911 7.5 10.625 7.5C12.6952 7.50215 14.3728 9.17982 14.375 11.25C14.3724 13.6652 12.4152 15.6224 10 15.625C7.23983 15.622 5.00301 13.3852 5 10.625C5.00344 7.51983 7.51983 5.00344 10.625 5C14.0752 5.00387 16.8711 7.79983 16.875 11.25C16.8707 15.0452 13.7952 18.1207 10 18.125C5.85983 18.1203 2.50474 14.7652 2.5 10.625C2.50474 6.13965 6.13965 2.50474 10.625 2.5C15.4553 2.50517 19.3698 6.41965 19.375 11.25Z" fill="white"/>
</g>
<defs>
<clipPath id="clip0_1_298">
<rect width="20" height="20" fill="white"/>
</clipPath>
</defs>
</svg>
