<svg width="20" height="20" viewBox="0 0 20 20" fill="none" xmlns="http://www.w3.org/2000/svg">
<g clip-path="url(#clip0_1_288)">
<path fill-rule="evenodd" clip-rule="evenodd" d="M16.875 3.125H5.625C4.93464 3.125 4.375 3.68464 4.375 4.375V5.625H3.125C2.43464 5.625 1.875 6.18464 1.875 6.875V15.625C1.875 16.3154 2.43464 16.875 3.125 16.875H14.375C15.0654 16.875 15.625 16.3154 15.625 15.625V14.375H16.875C17.5654 14.375 18.125 13.8154 18.125 13.125V4.375C18.125 3.68464 17.5654 3.125 16.875 3.125ZM5.625 4.375H16.875V9.27734L16.0883 8.49141C15.8539 8.25692 15.5359 8.12519 15.2043 8.12519C14.8727 8.12519 14.5547 8.25692 14.3203 8.49141L12.7578 10.0539L9.32031 6.61641C8.83222 6.12864 8.04121 6.12864 7.55312 6.61641L5.625 8.54453V4.375ZM14.375 15.625H3.125V6.875H4.375V13.125C4.375 13.8154 4.93464 14.375 5.625 14.375H14.375V15.625ZM16.875 13.125H5.625V10.3125L8.4375 7.5L12.3172 11.3797C12.5612 11.6236 12.9567 11.6236 13.2008 11.3797L15.2055 9.375L16.875 11.0453V13.125ZM12.5 6.5625C12.5 6.04473 12.9197 5.625 13.4375 5.625C13.9553 5.625 14.375 6.04473 14.375 6.5625C14.375 7.08027 13.9553 7.5 13.4375 7.5C12.9197 7.5 12.5 7.08027 12.5 6.5625Z" fill="white"/>
</g>
<defs>
<clipPath id="clip0_1_288">
<rect width="20" height="20" fill="white"/>
</clipPath>
</defs>
</svg>
