<svg width="24" height="32" viewBox="0 0 24 32" fill="none" xmlns="http://www.w3.org/2000/svg">
<g clip-path="url(#clip0_1_275)">
<path fill-rule="evenodd" clip-rule="evenodd" d="M21.6488 23.875C20.2209 21.4066 18.0206 19.6366 15.4528 18.7975C18.0635 17.2433 19.3141 14.1364 18.5082 11.2069C17.7022 8.27741 15.0383 6.24745 12 6.24745C8.96167 6.24745 6.29779 8.27741 5.49182 11.2069C4.68585 14.1364 5.93645 17.2433 8.54719 18.7975C5.97938 19.6356 3.77906 21.4056 2.35125 23.875C2.2087 24.1074 2.20353 24.3989 2.33773 24.6363C2.47194 24.8736 2.72438 25.0194 2.99702 25.0171C3.26967 25.0147 3.51958 24.8646 3.64969 24.625C5.41594 21.5725 8.53781 19.75 12 19.75C15.4622 19.75 18.5841 21.5725 20.3503 24.625C20.4804 24.8646 20.7303 25.0147 21.003 25.0171C21.2756 25.0194 21.5281 24.8736 21.6623 24.6363C21.7965 24.3989 21.7913 24.1074 21.6488 23.875ZM6.75 13C6.75 10.1005 9.1005 7.75 12 7.75C14.8995 7.75 17.25 10.1005 17.25 13C17.25 15.8995 14.8995 18.25 12 18.25C9.10179 18.2469 6.7531 15.8982 6.75 13Z" fill="#9CB5BA"/>
</g>
<defs>
<clipPath id="clip0_1_275">
<rect width="24" height="24" fill="white" transform="translate(0 4)"/>
</clipPath>
</defs>
</svg>
