<svg width="24" height="32" viewBox="0 0 24 32" fill="none" xmlns="http://www.w3.org/2000/svg">
<g clip-path="url(#clip0_1_261)">
<path fill-rule="evenodd" clip-rule="evenodd" d="M9.75 7.75H5.25C4.42157 7.75 3.75 8.42157 3.75 9.25V13.75C3.75 14.5784 4.42157 15.25 5.25 15.25H9.75C10.5784 15.25 11.25 14.5784 11.25 13.75V9.25C11.25 8.42157 10.5784 7.75 9.75 7.75ZM9.75 13.75H5.25V9.25H9.75V13.75ZM9.75 16.75H5.25C4.42157 16.75 3.75 17.4216 3.75 18.25V22.75C3.75 23.5784 4.42157 24.25 5.25 24.25H9.75C10.5784 24.25 11.25 23.5784 11.25 22.75V18.25C11.25 17.4216 10.5784 16.75 9.75 16.75ZM9.75 22.75H5.25V18.25H9.75V22.75ZM18.75 7.75H14.25C13.4216 7.75 12.75 8.42157 12.75 9.25V13.75C12.75 14.5784 13.4216 15.25 14.25 15.25H18.75C19.5784 15.25 20.25 14.5784 20.25 13.75V9.25C20.25 8.42157 19.5784 7.75 18.75 7.75ZM18.75 13.75H14.25V9.25H18.75V13.75ZM12.75 20.5V17.5C12.75 17.0858 13.0858 16.75 13.5 16.75C13.9142 16.75 14.25 17.0858 14.25 17.5V20.5C14.25 20.9142 13.9142 21.25 13.5 21.25C13.0858 21.25 12.75 20.9142 12.75 20.5ZM20.25 19C20.25 19.4142 19.9142 19.75 19.5 19.75H17.25V23.5C17.25 23.9142 16.9142 24.25 16.5 24.25H13.5C13.0858 24.25 12.75 23.9142 12.75 23.5C12.75 23.0858 13.0858 22.75 13.5 22.75H15.75V17.5C15.75 17.0858 16.0858 16.75 16.5 16.75C16.9142 16.75 17.25 17.0858 17.25 17.5V18.25H19.5C19.9142 18.25 20.25 18.5858 20.25 19ZM20.25 22V23.5C20.25 23.9142 19.9142 24.25 19.5 24.25C19.0858 24.25 18.75 23.9142 18.75 23.5V22C18.75 21.5858 19.0858 21.25 19.5 21.25C19.9142 21.25 20.25 21.5858 20.25 22Z" fill="#9CB5BA"/>
</g>
<defs>
<clipPath id="clip0_1_261">
<rect width="24" height="24" fill="white" transform="translate(0 4)"/>
</clipPath>
</defs>
</svg>
