<svg width="20" height="20" viewBox="0 0 20 20" fill="none" xmlns="http://www.w3.org/2000/svg">
<path fill-rule="evenodd" clip-rule="evenodd" d="M19.3013 18.2399L14.6073 13.5468C17.4336 10.1535 17.0912 5.13744 13.8299 2.15986C10.5685 -0.817729 5.54206 -0.703494 2.41939 2.41918C-0.70328 5.54185 -0.817515 10.5683 2.16007 13.8296C5.13766 17.091 10.1538 17.4334 13.547 14.6071L18.2401 19.3011C18.5332 19.5942 19.0083 19.5942 19.3013 19.3011C19.5944 19.0081 19.5944 18.5329 19.3013 18.2399V18.2399ZM1.52072 8.27051C1.52072 4.54259 4.5428 1.52051 8.27072 1.52051C11.9986 1.52051 15.0207 4.54259 15.0207 8.27051C15.0207 11.9984 11.9986 15.0205 8.27072 15.0205C4.54451 15.0164 1.52485 11.9967 1.52072 8.27051V8.27051Z" fill="#9CB5BA"/>
</svg>
