<svg width="24" height="24" viewBox="0 0 24 24" fill="none" xmlns="http://www.w3.org/2000/svg">
<g clip-path="url(#clip0_1_171)">
<path fill-rule="evenodd" clip-rule="evenodd" d="M20.25 3.75H3.75C2.92157 3.75 2.25 4.42157 2.25 5.25V18.75C2.25 19.5784 2.92157 20.25 3.75 20.25H20.25C21.0784 20.25 21.75 19.5784 21.75 18.75V5.25C21.75 4.42157 21.0784 3.75 20.25 3.75ZM20.25 18.75H3.75V5.25H20.25V18.75ZM16.5 8.25C16.5 10.7353 14.4853 12.75 12 12.75C9.51472 12.75 7.5 10.7353 7.5 8.25C7.5 7.83579 7.83579 7.5 8.25 7.5C8.66421 7.5 9 7.83579 9 8.25C9 9.90685 10.3431 11.25 12 11.25C13.6569 11.25 15 9.90685 15 8.25C15 7.83579 15.3358 7.5 15.75 7.5C16.1642 7.5 16.5 7.83579 16.5 8.25Z" fill="white"/>
</g>
<defs>
<clipPath id="clip0_1_171">
<rect width="24" height="24" fill="white"/>
</clipPath>
</defs>
</svg>
