<svg width="20" height="17" viewBox="0 0 20 17" fill="none" xmlns="http://www.w3.org/2000/svg">
<path fill-rule="evenodd" clip-rule="evenodd" d="M19.5 15.75C19.5 16.1642 19.1642 16.5 18.75 16.5H0.75C0.335786 16.5 0 16.1642 0 15.75V0.75C0 0.335786 0.335786 0 0.75 0C1.16421 0 1.5 0.335786 1.5 0.75V9.59719L6.25594 5.4375C6.52266 5.20401 6.91644 5.18915 7.2 5.40187L12.7134 9.53719L18.2559 4.6875C18.454 4.49149 18.7443 4.4214 19.0099 4.5055C19.2756 4.58959 19.4727 4.81402 19.5218 5.08828C19.5709 5.36254 19.464 5.64143 19.2441 5.8125L13.2441 11.0625C12.9773 11.296 12.5836 11.3108 12.3 11.0981L6.78656 6.96469L1.5 11.5903V15H18.75C19.1642 15 19.5 15.3358 19.5 15.75Z" fill="#9CB5BA"/>
</svg>
