<svg width="24" height="24" viewBox="0 0 24 24" fill="none" xmlns="http://www.w3.org/2000/svg">
<g clip-path="url(#clip0_3_1604)">
<path fill-rule="evenodd" clip-rule="evenodd" d="M20.8256 5.51906C20.6831 5.34851 20.4723 5.24996 20.25 5.25H5.12625L4.66781 2.73187C4.53823 2.01862 3.91711 1.5001 3.19219 1.5H1.5C1.08579 1.5 0.75 1.83579 0.75 2.25C0.75 2.66421 1.08579 3 1.5 3H3.1875L5.58375 16.1522C5.65434 16.5422 5.82671 16.9067 6.08344 17.2087C5.09996 18.1273 4.97046 19.6409 5.7836 20.7132C6.59675 21.7855 8.08911 22.0692 9.23899 21.37C10.3889 20.6709 10.8238 19.2154 10.2459 18H14.5041C14.3363 18.3513 14.2495 18.7357 14.25 19.125C14.25 20.5747 15.4253 21.75 16.875 21.75C18.3247 21.75 19.5 20.5747 19.5 19.125C19.5 17.6753 18.3247 16.5 16.875 16.5H7.79719C7.43472 16.4999 7.12417 16.2407 7.05937 15.8841L6.76219 14.25H17.6372C18.7246 14.2498 19.6563 13.4721 19.8506 12.4022L20.9906 6.13406C21.0297 5.91473 20.9692 5.68938 20.8256 5.51906ZM9 19.125C9 19.7463 8.49632 20.25 7.875 20.25C7.25368 20.25 6.75 19.7463 6.75 19.125C6.75 18.5037 7.25368 18 7.875 18C8.49632 18 9 18.5037 9 19.125ZM18 19.125C18 19.7463 17.4963 20.25 16.875 20.25C16.2537 20.25 15.75 19.7463 15.75 19.125C15.75 18.5037 16.2537 18 16.875 18C17.4963 18 18 18.5037 18 19.125ZM18.375 12.1341C18.31 12.4917 17.9979 12.7513 17.6344 12.75H6.48938L5.39906 6.75H19.3509L18.375 12.1341Z" fill="white"/>
</g>
<defs>
<clipPath id="clip0_3_1604">
<rect width="24" height="24" fill="white"/>
</clipPath>
</defs>
</svg>
