<svg width="24" height="24" viewBox="0 0 24 24" fill="none" xmlns="http://www.w3.org/2000/svg">
<path fill-rule="evenodd" clip-rule="evenodd" d="M22.5 10.5H21.4875L18.8831 4.64062C18.6423 4.09903 18.1052 3.75001 17.5125 3.75H6.4875C5.89479 3.75001 5.35766 4.09903 5.11688 4.64062L2.5125 10.5H1.5C1.08579 10.5 0.75 10.8358 0.75 11.25C0.75 11.6642 1.08579 12 1.5 12H2.25V19.5C2.25 20.3284 2.92157 21 3.75 21H6C6.82843 21 7.5 20.3284 7.5 19.5V18H16.5V19.5C16.5 20.3284 17.1716 21 18 21H20.25C21.0784 21 21.75 20.3284 21.75 19.5V12H22.5C22.9142 12 23.25 11.6642 23.25 11.25C23.25 10.8358 22.9142 10.5 22.5 10.5ZM6.4875 5.25H17.5125L19.8459 10.5H4.15406L6.4875 5.25ZM6 19.5H3.75V18H6V19.5ZM18 19.5V18H20.25V19.5H18ZM20.25 16.5H3.75V12H20.25V16.5ZM5.25 14.25C5.25 13.8358 5.58579 13.5 6 13.5H7.5C7.91421 13.5 8.25 13.8358 8.25 14.25C8.25 14.6642 7.91421 15 7.5 15H6C5.58579 15 5.25 14.6642 5.25 14.25ZM15.75 14.25C15.75 13.8358 16.0858 13.5 16.5 13.5H18C18.4142 13.5 18.75 13.8358 18.75 14.25C18.75 14.6642 18.4142 15 18 15H16.5C16.0858 15 15.75 14.6642 15.75 14.25Z" fill="white"/>
</svg>
